<?xml version="1.0" encoding="UTF-8"?>
<svg width="100pt" height="100pt" version="1.1" viewBox="0 0 100 100" xmlns="http://www.w3.org/2000/svg">
 <path d="m84.375 25h-9.375v-6.25c-0.32031-5.4453-4.957-9.625-10.406-9.375h-29.188c-5.4492-0.25-10.086 3.9297-10.406 9.375v6.25h-9.375c-5.1758 0-9.375 4.1992-9.375 9.375v46.875c0 5.1758 4.1992 9.375 9.375 9.375h68.75c5.1758 0 9.375-4.1992 9.375-9.375v-46.875c0-5.1758-4.1992-9.375-9.375-9.375zm-53.125-6.25c0-1.6875 1.9062-3.125 4.1562-3.125h29.188c2.25 0 4.1562 1.4375 4.1562 3.125v6.25h-37.5zm-15.625 12.5h68.75c0.82812 0 1.625 0.32812 2.2109 0.91406 0.58594 0.58594 0.91406 1.3828 0.91406 2.2109v15.625h-15.625v-3.125c0-1.7266-1.3984-3.125-3.125-3.125s-3.125 1.3984-3.125 3.125v3.125h-31.25v-3.125c0-1.7266-1.3984-3.125-3.125-3.125s-3.125 1.3984-3.125 3.125v3.125h-15.625v-15.625c0-1.7266 1.3984-3.125 3.125-3.125zm68.75 53.125h-68.75c-1.7266 0-3.125-1.3984-3.125-3.125v-25h15.625v3.125c0 1.7266 1.3984 3.125 3.125 3.125s3.125-1.3984 3.125-3.125v-3.125h31.25v3.125c0 1.7266 1.3984 3.125 3.125 3.125s3.125-1.3984 3.125-3.125v-3.125h15.625v25c0 0.82812-0.32812 1.625-0.91406 2.2109-0.58594 0.58594-1.3828 0.91406-2.2109 0.91406z" fill="#fff"/>
</svg>
