<?xml version="1.0" encoding="UTF-8"?>
<svg width="100pt" height="100pt" version="1.1" viewBox="0 0 100 100" xmlns="http://www.w3.org/2000/svg">
 <defs>
  <clipPath id="b">
   <path d="m18.512 32h59.488v23h-59.488z"/>
  </clipPath>
  <clipPath id="a">
   <path d="m30 45h51.488v23h-51.488z"/>
  </clipPath>
 </defs>
 <g>
  <g clip-path="url(#b)">
   <path d="m49.613 32.301c-0.33203-0.12891-0.69922-0.12891-1.0312 0l-30.07 11.277 1.6953 0.64062 28.488 10.637c0.33203 0.125 0.69922 0.125 1.0312 0l26.355-9.8984c0.57812-0.21094 0.96484-0.76562 0.96484-1.3828 0-0.61719-0.38672-1.1719-0.96484-1.3828z" fill="#fff"/>
  </g>
  <g clip-path="url(#a)">
   <path d="m31.715 51.918c-0.22656-0.082031-0.48047-0.046875-0.67578 0.089843-0.19531 0.14063-0.3125 0.36719-0.3125 0.60547v8.4844c0 3.7148 8.1797 6.6953 18.375 6.6953 6.8984 0 12.848-1.3867 16.031-3.3984 1.4883-0.96094 2.3672-2.1289 2.3672-3.2969v-8.6016c0-0.24219-0.11719-0.46875-0.31641-0.60547-0.19922-0.13672-0.45312-0.16797-0.67969-0.082031l-17.148 6.418c-0.16797 0.0625-0.34766 0.0625-0.51562 0zm47.141-6.3633c-0.26953 0.085937-0.46094 0.32031-0.49609 0.60156l-0.37109 2.9414-1.2617 8.9336c-0.03125 0.21094 0.03125 0.42578 0.17188 0.58594 0.14062 0.16016 0.34375 0.25391 0.55469 0.25h3.3047c0.21094 0 0.41406-0.089844 0.55469-0.25 0.13672-0.16016 0.19922-0.375 0.17188-0.58594l-1.6719-11.883c-0.03125-0.21484-0.15234-0.40625-0.33984-0.52344-0.18359-0.11328-0.41016-0.13672-0.61719-0.066406z" fill="#fff"/>
  </g>
 </g>
</svg>
