<?xml version="1.0" encoding="UTF-8"?>
<svg width="100pt" height="100pt" version="1.1" viewBox="0 0 100 100" xmlns="http://www.w3.org/2000/svg">
 <path d="m90.898 18.102v44.602c0 1.6992-1.3008 3-3 3-1.6992 0-3-1.3008-3-3v-44.602c0-3.8984-3.1992-7.1016-7.1016-7.1016h-55.598c-3.8984 0-7.1016 3.1992-7.1016 7.1016v55.602c0 3.8984 3.1992 7.1016 7.1016 7.1016h39.5l-3-3c-1.1992-1.1992-1.1992-3.1016 0-4.1992 1.1992-1.1992 3.1016-1.1992 4.1992 0l8.1016 8.1016c1.1992 1.1992 1.1992 3.1016 0 4.1992l-8 8.1953c-0.60156 0.60156-1.3984 0.89844-2.1016 0.89844-0.69922 0-1.5-0.30078-2.1016-0.89844-1.1992-1.1992-1.1992-3.1016 0-4.1992l3-3-39.598-0.003906c-7.1992 0-13.102-5.8984-13.102-13.102l0.003906-55.695c0-7.2031 5.7969-13.102 13.098-13.102h55.602c7.3008 0 13.098 5.8984 13.098 13.102zm-38.898 6.5v18.199c3.1016 0.89844 5.3984 3.6992 5.3984 7.1016 0 4.1016-3.3008 7.3984-7.3984 7.3984-3.3984 0-6.3008-2.3008-7.1992-5.5h-10c-1.1016 0-2-0.89844-2-2 0-1.1016 0.89844-2 2-2h10c0.69922-2.5 2.6992-4.3984 5.1016-5.1016l-0.003906-18.098c0-1.1016 0.89844-2 2-2 1.1016 0 2.1016 0.89844 2.1016 2zm-2 22c-1.8984 0-3.3984 1.5-3.3984 3.3984s1.5 3.3984 3.3984 3.3984 3.3984-1.5 3.3984-3.3984-1.5-3.3984-3.3984-3.3984z" fill="#fff"/>
</svg>
