<?xml version="1.0" encoding="UTF-8"?>
<svg width="100pt" height="100pt" version="1.1" viewBox="0 0 100 100" xmlns="http://www.w3.org/2000/svg">
 <path d="m76.328 76.52-10.148-17.578-1.5586-2.6992-3.9297-6.8086v-29.512h7.1406c0.82812 0 1.5-0.67188 1.5-1.5s-0.67188-1.5-1.5-1.5h-35.254c-0.82812 0-1.5 0.67188-1.5 1.5s0.67188 1.5 1.5 1.5h7.1406v29.512l-3.7305 6.4688-1.5898 2.75-10.32 17.867c-0.80859 1.4102-0.80859 3.0898 0 4.5 0.80859 1.4102 2.2695 2.25 3.8984 2.25h44.461c1.6289 0 3.0781-0.83984 3.8984-2.25 0.80469-1.3984 0.80469-3.0898-0.007813-4.5zm-33.809-25.941c0.12891-0.23047 0.19922-0.48828 0.19922-0.75v-29.547h14.969v29.551c0 0.26172 0.070312 0.51953 0.19922 0.75l3.8203 6.6211c-0.17188 0.058594-0.33984 0.12891-0.51172 0.19141-2.6289 0.98047-5.1016 1.9102-10.191 1.9102s-7.5586-0.92969-10.191-1.9102c-0.60156-0.21875-1.2109-0.44922-1.8516-0.67188zm31.211 28.941c-0.12891 0.23047-0.51953 0.75-1.3008 0.75h-44.449c-0.78125 0-1.1719-0.51953-1.3008-0.75-0.12891-0.23047-0.39063-0.82031 0-1.5l10.762-18.641c0.80859 0.26172 1.5586 0.53906 2.3281 0.82031 2.7617 1.0312 5.6094 2.0898 11.238 2.0898 5.6289 0 8.4805-1.0586 11.238-2.0898 0.32812-0.12109 0.66016-0.23828 0.98828-0.35938l10.5 18.191c0.38672 0.66797 0.125 1.2695-0.003906 1.4883z" fill="#fff"/>
</svg>
