<?xml version="1.0" encoding="UTF-8"?>
<svg width="100pt" height="100pt" version="1.1" viewBox="0 0 100 100" xmlns="http://www.w3.org/2000/svg">
 <path d="m72 18h-40c-3.3008 0-6 2.6992-6 6v2c-2.1992 0-4 1.8008-4 4v8c0 2.1992 1.8008 4 4 4-2.1992 0-4 1.8008-4 4v8c0 2.1992 1.8008 4 4 4-2.1992 0-4 1.8008-4 4v8c0 2.1992 1.8008 4 4 4v2c0 3.3008 2.6992 6 6 6h40c3.3008 0 6-2.6992 6-6v-52c0-3.3008-2.6992-6-6-6zm-46 12h4v8h-4zm0 16h4v8h-4zm0 16h4v8h-4zm4 14v-2h1c0.60156 0 1-0.39844 1-1v-46c0-0.60156-0.39844-1-1-1h-1v-2c0-1.1016 0.89844-2 2-2h6v56h-6c-1.1016 0-2-0.89844-2-2zm44 0c0 1.1016-0.89844 2-2 2h-32v-56h32c1.1016 0 2 0.89844 2 2z" fill="#fff"/>
</svg>
