<?xml version="1.0" encoding="UTF-8"?>
<svg width="100pt" height="100pt" version="1.1" viewBox="0 0 100 100" xmlns="http://www.w3.org/2000/svg">
 <path d="m88.812 71.57-4.7656-26.691c-0.91016-5.0898-5.3203-8.7812-10.492-8.7812h-22.09v-5.0234c0-0.78125 0.63672-1.4219 1.4219-1.4219h6.7305c2.3984 0 4.3516-1.9531 4.3516-4.3516v-6.4883c0-0.80859-0.65625-1.4648-1.4648-1.4648s-1.4648 0.65625-1.4648 1.4648v6.4883c0 0.78125-0.63672 1.4219-1.4219 1.4219h-6.7305c-2.3984 0-4.3516 1.9531-4.3516 4.3516v5.0234h-22.09c-5.1719 0-9.582 3.6953-10.492 8.7812l-4.7656 26.691c-0.49609 2.7852 0.25781 5.625 2.0742 7.793 1.8164 2.168 4.4805 3.4141 7.3086 3.4141 3.2773 0 6.2812-1.6484 8.0391-4.4141l6.9414-10.906c0.74219-1.168 2.0156-1.8672 3.3984-1.8672h22.094c1.3828 0 2.6562 0.69531 3.3984 1.8672l6.9453 10.902c1.7578 2.7656 4.7656 4.4141 8.0391 4.4141 2.8281 0 5.4922-1.2422 7.3086-3.4141 1.8164-2.1641 2.5742-5.0078 2.0781-7.7891zm-4.3203 5.9141c-1.2578 1.5-3.1016 2.3633-5.0625 2.3633-2.2695 0-4.3516-1.1406-5.5703-3.0586l-6.9414-10.906c-1.2852-2.0156-3.4766-3.2227-5.8711-3.2227l-22.094-0.003906c-2.3906 0-4.5859 1.2031-5.8711 3.2227l-6.9414 10.906c-1.2188 1.9141-3.3008 3.0586-5.5703 3.0586-1.957 0-3.8047-0.85938-5.0625-2.3633-1.2578-1.5-1.7812-3.4688-1.4375-5.3984l4.7656-26.691c0.66016-3.6875 3.8594-6.3672 7.6055-6.3672h11.027l1.7148 5.1484c0.64844 1.9453 2.4609 3.25 4.5117 3.25h12.602c2.0508 0 3.8633-1.3047 4.5117-3.25l1.7148-5.1484h11.031c3.75 0 6.9453 2.6797 7.6055 6.3672l4.7656 26.691c0.34766 1.9297-0.17969 3.8984-1.4336 5.4023zm-47.09-24.297c0 0.80859-0.65625 1.4648-1.4648 1.4648h-4.7852v4.7852c0 0.80859-0.65625 1.4648-1.4648 1.4648s-1.4648-0.65625-1.4648-1.4648v-4.7852h-4.7852c-0.80859 0-1.4648-0.65625-1.4648-1.4648s0.65625-1.4648 1.4648-1.4648h4.7852v-4.7852c0-0.80859 0.65625-1.4648 1.4648-1.4648s1.4648 0.65625 1.4648 1.4648v4.7852h4.7852c0.80859 0 1.4648 0.65234 1.4648 1.4648zm34.375-6.25v3.125c0 0.80859-0.65625 1.4648-1.4648 1.4648s-1.4648-0.65625-1.4648-1.4648v-3.125c0-0.80859 0.65625-1.4648 1.4648-1.4648s1.4648 0.65234 1.4648 1.4648zm0 9.375v3.125c0 0.80859-0.65625 1.4648-1.4648 1.4648s-1.4648-0.65625-1.4648-1.4648v-3.125c0-0.80859 0.65625-1.4648 1.4648-1.4648s1.4648 0.65234 1.4648 1.4648zm6.25-3.125c0 0.80859-0.65625 1.4648-1.4648 1.4648h-3.125c-0.80859 0-1.4648-0.65625-1.4648-1.4648s0.65625-1.4648 1.4648-1.4648h3.125c0.80859 0 1.4648 0.65234 1.4648 1.4648zm-9.375 0c0 0.80859-0.65625 1.4648-1.4648 1.4648h-3.125c-0.80859 0-1.4648-0.65625-1.4648-1.4648s0.65625-1.4648 1.4648-1.4648h3.125c0.80859 0 1.4648 0.65234 1.4648 1.4648z" fill="#fff"/>
</svg>
